<svg width="135" height="228" viewBox="0 0 135 228" fill="none" xmlns="http://www.w3.org/2000/svg">
<path d="M0 8.20347H16.3808M8.19038 0L8.19038 16.4069M23.7238 8.20347H40.1046M31.9142 0V16.4069M47.4477 8.20347H63.8285M55.6381 0V16.4069M71.1715 8.20347H87.5523M79.3619 0V16.4069M94.8954 8.20347H111.276M103.086 0V16.4069M118.619 8.20347H135M126.81 0V16.4069M0 38.7543H16.3808M8.19038 30.5509L8.19038 46.9578M23.7238 38.7543H40.1046M31.9142 30.5509V46.9578M47.4477 38.7543H63.8285M55.6381 30.5509V46.9578M71.1715 38.7543H87.5523M79.3619 30.5509V46.9578M94.8954 38.7543H111.276M103.086 30.5509V46.9578M118.619 38.7543H135M126.81 30.5509V46.9578M0 69.3052H16.3808M8.19038 61.1017L8.19038 77.5087M23.7238 69.3052H40.1046M31.9142 61.1017V77.5087M47.4477 69.3052H63.8285M55.6381 61.1017V77.5087M71.1715 69.3052H87.5523M79.3619 61.1017V77.5087M94.8954 69.3052H111.276M103.086 61.1017V77.5087M118.619 69.3052H135M126.81 61.1017V77.5087M0 99.8561H16.3808M8.19038 91.6526L8.19038 108.06M23.7238 99.8561H40.1046M31.9142 91.6526V108.06M47.4477 99.8561H63.8285M55.6381 91.6526V108.06M71.1715 99.8561H87.5523M79.3619 91.6526V108.06M94.8954 99.8561H111.276M103.086 91.6526V108.06M118.619 99.8561H135M126.81 91.6526V108.06M0 128.144H16.3808M8.19038 119.94L8.19038 136.347M23.7238 128.144H40.1046M31.9142 119.94V136.347M47.4477 128.144H63.8285M55.6381 119.94V136.347M71.1715 128.144H87.5523M79.3619 119.94V136.347M94.8954 128.144H111.276M103.086 119.94V136.347M118.619 128.144H135M126.81 119.94V136.347M0 158.695H16.3808M8.19038 150.491L8.19038 166.898M23.7238 158.695H40.1046M31.9142 150.491V166.898M47.4477 158.695H63.8285M55.6381 150.491V166.898M71.1715 158.695H87.5523M79.3619 150.491V166.898M94.8954 158.695H111.276M103.086 150.491V166.898M118.619 158.695H135M126.81 150.491V166.898M0 189.246H16.3808M8.19038 181.042L8.19038 197.449M23.7238 189.246H40.1046M31.9142 181.042V197.449M47.4477 189.246H63.8285M55.6381 181.042V197.449M71.1715 189.246H87.5523M79.3619 181.042V197.449M94.8954 189.246H111.276M103.086 181.042V197.449M118.619 189.246H135M126.81 181.042V197.449M0 219.797H16.3808M8.19038 211.593L8.19038 228M23.7238 219.797H40.1046M31.9142 211.593V228M47.4477 219.797H63.8285M55.6381 211.593V228M71.1715 219.797H87.5523M79.3619 211.593V228M94.8954 219.797H111.276M103.086 211.593V228M118.619 219.797H135M126.81 211.593V228" stroke="black" stroke-opacity="0.13"/>
</svg>
